<?xml version="1.0" encoding="UTF-8" standalone="no"?>
<svg
   xmlns:dc="http://purl.org/dc/elements/1.1/"
   xmlns:cc="http://creativecommons.org/ns#"
   xmlns:rdf="http://www.w3.org/1999/02/22-rdf-syntax-ns#"
   xmlns:svg="http://www.w3.org/2000/svg"
   xmlns="http://www.w3.org/2000/svg"
   xmlns:sodipodi="http://sodipodi.sourceforge.net/DTD/sodipodi-0.dtd"
   xmlns:inkscape="http://www.inkscape.org/namespaces/inkscape"
   width="16"
   height="16"
   viewBox="0 0 4.2333332 4.2333332"
   version="1.1"
   id="svg8"
   inkscape:version="1.0.1 (c497b03c, 2020-09-10)"
   sodipodi:docname="favicon.svg"
   inkscape:export-filename="/Users/georgerichardson/Documents/logo.png"
   inkscape:export-xdpi="96"
   inkscape:export-ydpi="96">
  <defs
     id="defs2" />
  <sodipodi:namedview
     id="base"
     pagecolor="#ffffff"
     bordercolor="#666666"
     borderopacity="1.0"
     inkscape:pageopacity="0"
     inkscape:pageshadow="2"
     inkscape:zoom="29.479322"
     inkscape:cx="10.700171"
     inkscape:cy="7.8990802"
     inkscape:document-units="px"
     inkscape:current-layer="layer1"
     inkscape:document-rotation="0"
     showgrid="false"
     units="px"
     inkscape:window-width="1252"
     inkscape:window-height="772"
     inkscape:window-x="0"
     inkscape:window-y="25"
     inkscape:window-maximized="0" />
  <metadata
     id="metadata5">
    <rdf:RDF>
      <cc:Work
         rdf:about="">
        <dc:format>image/svg+xml</dc:format>
        <dc:type
           rdf:resource="http://purl.org/dc/dcmitype/StillImage" />
        <dc:title></dc:title>
      </cc:Work>
    </rdf:RDF>
  </metadata>
  <g
     inkscape:label="Layer 1"
     inkscape:groupmode="layer"
     id="layer1">
    <g
       aria-label="gr"
       id="text12"
       style="font-style:normal;font-variant:normal;font-weight:500;font-stretch:normal;font-size:4.58451px;line-height:1.25;font-family:montserrat;-inkscape-font-specification:'montserrat Medium';fill:#000000;fill-opacity:1;stroke:none;stroke-width:0.114613">
      <path
         d="M 2.6315087,0.86359044 V 2.9403734 q 0,1.2928318 -1.3203389,1.2928318 -0.35300724,0 -0.66933841,-0.09169 Q 0.32550021,4.0544093 0.11919726,3.8847824 L 0.37592981,3.4538385 q 0.16045785,0.1329508 0.40343687,0.2108875 0.24756352,0.082521 0.49971162,0.082521 0.4034368,0 0.5914017,-0.1833804 Q 2.0584449,3.3804864 2.0584449,3.0045565 V 2.8761903 q -0.1467043,0.1604578 -0.3575917,0.242979 -0.2108875,0.082521 -0.4630355,0.082521 -0.34842278,0 -0.63266239,-0.1467043 Q 0.32550021,2.9036973 0.16045785,2.6332112 0,2.3627252 0,2.0143024 0,1.6658797 0.16045785,1.3999781 0.32550021,1.129492 0.60515531,0.9827877 0.88939492,0.83608338 1.2378177,0.83608338 q 0.2659015,0 0.4813735,0.0871057 Q 1.9392477,1.0102948 2.085952,1.1890906 V 0.86359044 Z M 1.3249234,2.7157324 q 0.3255002,0 0.5318031,-0.1925494 0.2108874,-0.1971339 0.2108874,-0.5088806 0,-0.3071621 -0.2108874,-0.4997116 -0.2063029,-0.1925494 -0.5318031,-0.1925494 -0.33008476,0 -0.54097221,0.1925494 -0.20630294,0.1925495 -0.20630294,0.4997116 0,0.3117467 0.20630294,0.5088806 0.21088745,0.1925494 0.54097221,0.1925494 z"
         style="font-style:normal;font-variant:normal;font-weight:600;font-stretch:normal;font-family:montserrat;-inkscape-font-specification:'montserrat Semi-Bold';stroke-width:0.114613"
         id="path9" />
      <path
         d="M 3.3622801,1.2211822 Q 3.6098437,0.83608338 4.233337,0.83608338 V 1.3816401 q -0.073352,-0.013754 -0.1329508,-0.013754 -0.3346692,0 -0.5226341,0.1971339 -0.1879649,0.1925495 -0.1879649,0.5593103 v 1.187388 H 2.8167235 V 0.86359044 h 0.5455566 z"
         style="font-style:normal;font-variant:normal;font-weight:600;font-stretch:normal;font-family:montserrat;-inkscape-font-specification:'montserrat Semi-Bold';stroke-width:0.114613"
         id="path11" />
    </g>
  </g>
</svg>
