<?xml version="1.0" encoding="UTF-8"?>
<svg width="16" height="16" version="1.1" viewBox="0 0 4.2333 4.2333" xmlns="http://www.w3.org/2000/svg">
    <style>
    path { fill: #000000; }
    @media (prefers-color-scheme: dark) {
      path { fill: #ffffff; }
    }
  </style>
 <g stroke-width=".11461" aria-label="gr">
  <path d="m2.6315 0.86359v2.0768q0 1.2928-1.3203 1.2928-0.35301 0-0.66934-0.09169-0.31633-0.087106-0.52263-0.25673l0.25673-0.43094q0.16046 0.13295 0.40344 0.21089 0.24756 0.082521 0.49971 0.082521 0.40344 0 0.5914-0.18338 0.18796-0.18338 0.18796-0.55931v-0.12837q-0.1467 0.16046-0.35759 0.24298-0.21089 0.082521-0.46304 0.082521-0.34842 0-0.63266-0.1467-0.27966-0.15129-0.4447-0.42177-0.16046-0.27049-0.16046-0.61891 0-0.34842 0.16046-0.61432 0.16504-0.27049 0.4447-0.41719 0.28424-0.1467 0.63266-0.1467 0.2659 0 0.48137 0.087106 0.22006 0.087106 0.36676 0.2659v-0.3255zm-1.3066 1.8521q0.3255 0 0.5318-0.19255 0.21089-0.19713 0.21089-0.50888 0-0.30716-0.21089-0.49971-0.2063-0.19255-0.5318-0.19255-0.33008 0-0.54097 0.19255-0.2063 0.19255-0.2063 0.49971 0 0.31175 0.2063 0.50888 0.21089 0.19255 0.54097 0.19255z"/>
  <path d="m3.3623 1.2212q0.24756-0.3851 0.87106-0.3851v0.54556q-0.073352-0.013754-0.13295-0.013754-0.33467 0-0.52263 0.19713-0.18796 0.19255-0.18796 0.55931v1.1874h-0.57306v-2.4481h0.54556z"/>
 </g>
</svg>
